<?xml version="1.0" encoding="UTF-8"?>
<svg fill="currentColor" xmlns="http://www.w3.org/2000/svg" viewBox="0 0 707.93 607.7">
  <g>
    <g>
      <path class="cls-1" d="M146.31,429.98c-13.32,0-24.12,10.8-24.12,24.12s10.8,24.12,24.12,24.12,24.12-10.8,24.12-24.12-10.8-24.12-24.12-24.12Z"/>
      <path class="cls-1" d="M562.25,429.98c-13.32,0-24.12,10.8-24.12,24.12s10.8,24.12,24.12,24.12,24.12-10.8,24.12-24.12-10.8-24.12-24.12-24.12Z"/>
      <path class="cls-1" d="M707.78,486.91c-.79-13.91-.56-54.42,0-110.79.04-61.74-.22-107.29,0-123.91.04-3.2.19-11.33-3.41-20.79,0,0-3.71-9.75-11.59-18.13-2.62-2.79-5.33-5.5-8.04-8.19V46.5c0-9.22-4.79-22.89-12.37-27.01h0c-23.8-10.94-86.76-33.53-157.26-7.28-29.99,11.17-57.71,29.97-80.83,54.61-27.8-6.17-53.7-8.69-77.42-8.71-1.77,0-3.22,0-4.09.02-13.23.14-36.94,1.2-73.58,10.8-23.49-25.66-51.88-45.24-82.72-56.72C125.95-14.04,62.99,8.56,39.21,19.49c-7.58,4.12-12.37,12.55-12.37,21.76v165c-2.39,2.32-4.8,4.64-7.13,7.04-12.82,13.18-16.5,28.49-16.5,28.49-2.29,7.5-2.88,13.98-3.04,18.11v233.49c-.32,3.89-.32,9.17,1.05,15.17,0,0,1.04,4.54,2.99,8.98.78,1.77,45.34,89.18,136.82,90.12,0,0,70.75.89,127.23-66.38,5.26-6.27,7.67-13.15,7.67-13.15,2.08-5.95,2.2-10.99,2.21-13.3.08-12.06-1.72-94.85,1.26-135.96.55-7.59,1.84-20.24,10.88-29.15,7.31-7.21,18.23-10.52,19.28-10.83,4.76-1.4,8.93-1.84,11.92-1.96h63.15c4.6,0,9.03.7,13.2,1.99,1.05.33,10.94,3.51,18.23,11.02,9.29,9.58,10.74,22.47,11.37,29.47,3.88,42.82.64,122.79,1.35,137.36.29,5.85,1.66,10.46,1.94,11.36,0,0,1.94,6.61,6.2,12.75,46.47,67.01,125.84,66.82,125.85,66.82,0,0,89.71-.2,137.05-85.2,3.84-6.89,5.81-13.95,5.81-13.95,2.89-10.35,2.31-18.82,2.15-21.64ZM507.08,63.55c6.86-3.75,13.93-6.99,21.15-9.68,39.01-14.52,75.35-10.56,100.74-3.73,9.02,2.43,15.29,11.27,15.29,21.38v72.09c0,8.45-4.24,15.31-10.16,19.02-34.33-24.8-63.47-39.55-63.47-39.55-25.76-15.54-50.5-27.7-74.16-37.08-1.06-8.69,2.34-17.93,10.62-22.45ZM67.33,71.52c0-10.11,6.26-18.95,15.28-21.38,25.39-6.84,61.73-10.79,100.74,3.73,7.51,2.8,14.51,6.05,21.02,9.6,9.92,5.41,13.03,17.46,9.67,27.34-20.99,8.4-44.34,18.83-70.53,32.13,0,0-29.6,15.08-64.76,40.31-6.56-3.5-11.43-10.63-11.43-19.65v-72.09ZM657.28,485.11c-.02,7.83-1.97,15.61-6.01,22.32-18.39,30.51-50.59,49.98-85.95,50.89-32.81.89-57.62-15.36-72.93-29.54-9.01-8.34-13.98-20.12-13.98-32.39v-164.37c0-24.55-19.9-44.45-44.45-44.45h-161.83c-24.55,0-44.45,19.9-44.45,44.45v165.72c0,11.76-4.49,23.23-12.94,31.42-19.46,18.86-45.65,29.43-72.57,29.16-35.18-.82-66.99-20.29-84.89-50.85-3.88-6.62-5.74-14.25-5.76-21.93l-.27-208.66c-.01-11.42,4.22-22.56,12.23-30.7,31.1-31.6,66.12-58.56,104.42-80.34,40.18-22.86,100.9-57.4,185.41-58.36,91.08-1.07,156.93,37.51,192.43,58.23,36.79,21.46,70.18,48.02,99.56,79.16,7.94,8.42,12.52,19.48,12.49,31.05l-.52,209.19Z"/>
      <path class="cls-1" d="M371.69,552.91c-4.49-.32-10.56-3.2-17.31-14.72v-24.23c9.91-6.88,29.43-21.74,26.27-31.11-4.62-13.69-56.93-13.47-61.35,0-3.05,9.3,17.01,24.06,27.68,31.2v24.14c-4.71,10.33-9.78,13.74-14.02,14.57-10.9,2.15-23.7-11.3-25.49-9.22-.44.51.07,1.62.32,2.13,6.32,12.55,17.21,22.74,30.81,26.27,3.69.96,11.87,2.57,21.75.55,0,0,22.54-4.61,33.37-27.02.18-.37.7-1.46.28-1.92-1.56-1.72-12.15,10.1-22.31,9.38Z"/>
    </g>
  </g>
</svg>